<svg version="1.2" xmlns="http://www.w3.org/2000/svg" viewBox="0 0 179 41" width="179" height="41"><defs><clipPath clipPathUnits="userSpaceOnUse" id="cp1"><path d="m0 0h40v41h-40z"/></clipPath></defs><style>.a{fill:#c7231a}.b{fill:#fff}</style><g clip-path="url(#cp1)"><path fill-rule="evenodd" class="a" d="m15.5 0.7q0.8 0.2 1.7 0.5 0.8 0.4 1.5 0.9 0.7 0.5 1.3 1.2c0.8-0.9 1.7-1.5 2.8-2 1-0.5 2.1-0.8 3.3-0.8 1.1 0 2.3 0.2 3.4 0.6 1 0.5 2 1.1 2.8 1.9l7.7 7.7v3.5q0 0.9-0.2 1.8-0.2 0.9-0.5 1.7-0.4 0.8-0.9 1.5-0.5 0.7-1.2 1.3c1.7 1.6 2.8 3.8 2.8 6.3v3.5l-7.7 7.7c-0.8 0.8-1.8 1.5-2.8 1.9-1.1 0.4-2.3 0.6-3.4 0.6-1.2 0-2.3-0.3-3.3-0.7-1.1-0.5-2-1.2-2.8-2.1-0.8 0.9-1.7 1.6-2.8 2.1-1 0.4-2.1 0.7-3.3 0.7-1.1 0-2.3-0.2-3.4-0.6-1-0.4-2-1.1-2.8-1.9l-7.7-7.7v-3.5q0-0.9 0.2-1.8 0.2-0.8 0.5-1.6 0.4-0.8 0.9-1.6 0.5-0.7 1.2-1.3c-1.7-1.5-2.8-3.8-2.8-6.3v-3.5l7.7-7.7c1.6-1.6 3.8-2.5 6-2.5q0.9 0 1.8 0.2zm10.3 19.8q-0.1 0-0.1-0.1 0 0-0.1 0 0-0.1-0.1-0.1 0 0 0-0.1l-5.5-5.4-5.5 5.4q0 0.1 0 0.1-0.1 0-0.1 0.1-0.1 0-0.1 0.1 0 0-0.1 0 0.2 0.1 0.3 0.3l5.5 5.5 5.5-5.5q0.1-0.2 0.3-0.3zm-3.6 9.8v1.7c0 0.8 0.3 1.6 0.7 2.3 0.5 0.6 1.1 1.2 1.8 1.5 0.8 0.3 1.6 0.4 2.4 0.2 0.8-0.2 1.5-0.5 2.1-1.1l6.4-6.4v-1.7c0-0.8-0.3-1.6-0.7-2.3-0.5-0.6-1.1-1.1-1.9-1.5-0.7-0.3-1.5-0.3-2.3-0.2-0.8 0.2-1.5 0.6-2.1 1.1zm-4.4 0l-6.4-6.4c-0.6-0.5-1.3-0.9-2.1-1.1-0.8-0.1-1.6-0.1-2.4 0.2-0.7 0.4-1.3 0.9-1.8 1.5-0.4 0.7-0.7 1.5-0.7 2.3v1.7l6.4 6.4c0.6 0.6 1.3 0.9 2.1 1.1 0.8 0.2 1.6 0.1 2.4-0.2 0.7-0.3 1.3-0.9 1.8-1.5 0.4-0.7 0.7-1.5 0.7-2.3zm-0.7-23.5c-0.5-0.7-1.1-1.2-1.8-1.5-0.8-0.4-1.6-0.4-2.4-0.3-0.8 0.2-1.5 0.6-2.1 1.1l-6.4 6.4v1.7c0 0.8 0.3 1.6 0.7 2.3 0.5 0.6 1.1 1.2 1.8 1.5 0.8 0.3 1.6 0.4 2.4 0.2 0.8-0.2 1.5-0.5 2.1-1.1l6.4-6.4v-1.7c0-0.8-0.3-1.6-0.7-2.2zm13.6 11.4c0.8 0.2 1.6 0.1 2.3-0.2 0.8-0.3 1.4-0.9 1.9-1.5 0.4-0.7 0.7-1.5 0.7-2.3v-1.7l-6.4-6.4c-0.6-0.5-1.3-0.9-2.1-1.1-0.8-0.1-1.6-0.1-2.4 0.3-0.7 0.3-1.3 0.8-1.8 1.5-0.4 0.6-0.7 1.4-0.7 2.2v1.7l6.4 6.4c0.6 0.6 1.3 0.9 2.1 1.1z"/></g><path class="b" d="m54.3 29v-16.8h11.5v3.1h-7.9v3.6h6.7v2.9h-6.7v4.1h8v3.1zm12.8 0l4.4-6-4.2-6.1h4.5l2.1 3.7 2.1-3.7h4.3l-4 6 4.3 6.1h-4.4l-2.4-3.7-2.4 3.7zm20.3 0.3q-1.9 0-3.1-1.1-1.1-1.1-1.1-3.3v-11.6h3.5v3.5h3v2.8h-3v4.6q0 1.1 0.5 1.5 0.4 0.5 1.2 0.5 0.3 0 0.7-0.1 0.4-0.1 0.7-0.3l0.5 2.8q-0.6 0.3-1.3 0.5-0.2 0-0.4 0.1-0.2 0-0.4 0.1-0.2 0-0.4 0-0.2 0-0.4 0zm-6.6-9.7v-2.8h2.8v2.8c0 0-2.8 0-2.8 0zm17.1 9.7q-2 0-3.5-0.8-0.4-0.2-0.7-0.4-0.3-0.3-0.6-0.6-0.3-0.2-0.6-0.6-0.2-0.3-0.4-0.6-0.9-1.5-0.9-3.4 0-1.4 0.5-2.6 0.1-0.3 0.3-0.6 0.1-0.2 0.3-0.5 0.2-0.2 0.4-0.5 0.2-0.2 0.4-0.4 0.2-0.2 0.4-0.4 0.3-0.2 0.5-0.4 0.3-0.2 0.6-0.3 0.3-0.1 0.5-0.3 1.2-0.4 2.7-0.4 1.5 0 2.8 0.5 0.3 0.1 0.5 0.3 0.3 0.2 0.6 0.4 0.2 0.2 0.5 0.4 0.2 0.2 0.4 0.5 0.8 0.9 1.1 2.3 0.3 1.3 0.1 2.9h-9.3q0 0.8 0.4 1.4 0.5 0.7 1.2 1 0.8 0.4 1.9 0.4 1.1 0 2-0.3 0.3-0.1 0.5-0.2 0.2-0.1 0.5-0.2 0.2-0.1 0.4-0.2 0.2-0.2 0.4-0.3l1.2 2.4q-0.6 0.4-1.4 0.8-0.9 0.3-1.9 0.5-0.2 0.1-0.4 0.1-0.3 0-0.5 0-0.2 0.1-0.5 0.1-0.2 0-0.4 0zm-3.2-7.9h5.7q0-1.1-0.8-1.7-0.7-0.7-1.9-0.7-1.3 0-2.1 0.7-0.8 0.6-0.9 1.7zm11.1 7.5v-12.1h3.5v1.4q0.7-0.9 1.7-1.3 0.2-0.1 0.4-0.2 0.3-0.1 0.5-0.1 0.3-0.1 0.5-0.1 0.3 0 0.6 0 1.7 0 2.7 0.6 1.1 0.7 1.7 1.7 0.5 1.1 0.5 2.3v7.8h-3.5v-6.7q0-1.2-0.6-1.9-0.7-0.7-1.9-0.7-0.8 0-1.3 0.4-0.6 0.3-1 0.9-0.3 0.6-0.3 1.5v6.5zm19.3 0.4q-1.6 0-3-0.4-1.4-0.5-2.3-1.2l1.1-2.5q0.2 0.2 0.5 0.4 0.2 0.1 0.5 0.2 0.3 0.2 0.5 0.3 0.3 0.1 0.6 0.2 1.1 0.3 2.1 0.3 1 0 1.5-0.3 0.6-0.3 0.6-0.9 0-0.5-0.5-0.7-0.5-0.3-1.9-0.6-2.4-0.4-3.5-1.3-1.1-1-1.1-2.6 0-1.1 0.7-2 0.6-0.9 1.7-1.4 1.2-0.5 2.6-0.5 1.5 0 2.7 0.4 1.3 0.4 2.2 1.1l-1.1 2.5q-0.1-0.1-0.2-0.2-0.2-0.1-0.3-0.2-0.1-0.1-0.3-0.2-0.1 0-0.3-0.1-0.1-0.1-0.3-0.1-0.2-0.1-0.3-0.2-0.2 0-0.3-0.1-0.2 0-0.4 0-0.1-0.1-0.3-0.1-0.2 0-0.3-0.1-0.2 0-0.4 0-0.1 0-0.3 0-0.9 0-1.4 0.3-0.6 0.3-0.6 0.8 0 0.5 0.5 0.8 0.5 0.2 1.9 0.5 2.5 0.6 3.5 1.4 1.1 0.9 1.1 2.5 0 1.2-0.7 2.1-0.6 0.9-1.8 1.4-1.1 0.5-2.7 0.5zm7.4-0.4v-12.1h3.5v12.1zm1.8-14q-0.2 0-0.4 0-0.2-0.1-0.4-0.1-0.2-0.1-0.4-0.2-0.2-0.1-0.3-0.2-0.7-0.6-0.7-1.5 0-0.9 0.7-1.5 0.1-0.1 0.3-0.2 0.2-0.1 0.4-0.2 0.2-0.1 0.4-0.1 0.2 0 0.4 0 0.2 0 0.4 0 0.2 0 0.4 0.1 0.2 0.1 0.3 0.2 0.2 0.1 0.4 0.2 0.6 0.6 0.6 1.5 0 0.9-0.6 1.5-0.2 0.1-0.4 0.2-0.1 0.1-0.3 0.2-0.2 0-0.4 0.1-0.2 0-0.4 0zm10.3 14.4q-1.9 0-3.4-0.9-0.4-0.2-0.7-0.4-0.4-0.3-0.7-0.6-0.3-0.3-0.5-0.6-0.3-0.3-0.5-0.7-0.2-0.4-0.4-0.8-0.1-0.3-0.3-0.8-0.1-0.4-0.1-0.8-0.1-0.4-0.1-0.8 0-1.3 0.5-2.5 0.1-0.2 0.3-0.5 0.1-0.3 0.3-0.6 0.2-0.2 0.4-0.4 0.2-0.3 0.4-0.5 0.9-0.9 2.1-1.4 1.3-0.5 2.7-0.5 2 0 3.5 0.8 0.4 0.2 0.7 0.5 0.3 0.3 0.6 0.5 0.3 0.3 0.6 0.7 0.2 0.3 0.5 0.7 0.8 1.4 0.8 3.2 0 1.3-0.5 2.4-0.1 0.3-0.2 0.6-0.2 0.3-0.4 0.5-0.1 0.3-0.3 0.5-0.2 0.3-0.5 0.5-0.2 0.2-0.4 0.4-0.3 0.2-0.6 0.4-0.2 0.2-0.5 0.3-0.3 0.2-0.6 0.3-1.2 0.5-2.7 0.5zm0-3q1 0 1.7-0.4 0.7-0.5 1.1-1.2 0.5-0.8 0.5-1.8 0-1.1-0.5-1.8-0.1-0.2-0.2-0.4-0.1-0.1-0.2-0.3-0.2-0.1-0.4-0.3-0.1-0.1-0.3-0.2-0.7-0.4-1.7-0.4-0.9 0-1.6 0.4-0.8 0.4-1.2 1.2-0.4 0.7-0.4 1.8 0 1 0.4 1.8 0.4 0.7 1.2 1.2 0.7 0.4 1.6 0.4zm8.6 2.6v-12.1h3.5v1.4q0.7-0.9 1.7-1.3 0.2-0.1 0.4-0.2 0.3-0.1 0.5-0.1 0.3-0.1 0.6-0.1 0.2 0 0.5 0 1.7 0 2.8 0.6 1.1 0.7 1.6 1.7 0.5 1.1 0.5 2.3v7.8h-3.5v-6.7q0-1.2-0.6-1.9-0.7-0.7-1.9-0.7-0.7 0-1.3 0.4-0.6 0.3-1 0.9-0.3 0.6-0.3 1.5v6.5zm19.3 0.4q-1.6 0-3-0.4-1.3-0.5-2.3-1.2l1.1-2.5q0.3 0.2 0.5 0.4 0.3 0.1 0.5 0.2 0.3 0.2 0.5 0.3 0.3 0.1 0.6 0.2 1.1 0.3 2.1 0.3 1 0 1.5-0.3 0.6-0.3 0.6-0.9 0-0.5-0.5-0.7-0.5-0.3-1.9-0.6-2.4-0.4-3.5-1.3-1.1-1-1.1-2.6 0-1.1 0.7-2 0.6-0.9 1.7-1.4 1.2-0.5 2.6-0.5 1.5 0 2.7 0.4 1.3 0.4 2.2 1.1l-1.1 2.5q-0.1-0.1-0.2-0.2-0.2-0.1-0.3-0.2-0.1-0.1-0.3-0.2-0.1 0-0.3-0.1-0.1-0.1-0.3-0.1-0.1-0.1-0.3-0.2-0.2 0-0.3-0.1-0.2 0-0.4 0-0.1-0.1-0.3-0.1-0.2 0-0.3-0.1-0.2 0-0.3 0-0.2 0-0.4 0-0.9 0-1.4 0.3-0.5 0.3-0.5 0.8 0 0.5 0.5 0.8 0.4 0.2 1.8 0.5 2.5 0.6 3.6 1.4 1 0.9 1 2.5 0 1.2-0.6 2.1-0.7 0.9-1.9 1.4-1.1 0.5-2.7 0.5z"/></svg>
